<?xml version="1.0" encoding="UTF-8"?>
<svg width="1200pt" height="1200pt" version="1.1" viewBox="0 0 1200 1200" xmlns="http://www.w3.org/2000/svg">
 <g fill="#fce581">
  <path d="m1200 626.4c0-314.16-265.2-569.76-591.12-569.76-66.238 0-130.56 10.32-192.24 30.961-4.8008-33.121-27.84-62.398-48-79.199-7.9219-6.4805-18.48-9.3594-28.801-7.9219-10.32 1.6797-19.441 7.4414-24.961 16.078-13.922 21.84-37.199 62.398-54 95.762-21.359 7.1992-45.84 17.52-74.641 31.199-95.52 46.086-124.8 107.04-140.64 139.68-3.8398 7.9219-6.7188 13.922-9.3594 17.281-2.1602 2.8789-4.5586 5.7617-7.1992 8.6406-16.801 20.16-25.922 32.879-28.559 45.602-0.48047 2.1602-0.71875 4.5586-0.71875 6.9609 0 50.879 33.84 75.359 63.359 90.719 32.641 17.039 84 28.078 153.12 32.641-35.762 30.238-83.52 46.559-104.16 52.801-26.398 7.6797-47.039 33.359-50.398 61.922-3.8398 31.922 13.199 60.961 46.559 79.922 27.84 15.602 71.039 11.039 116.88-2.1602-18.727 139.43-31.684 261.35 54.715 368.63-32.641 4.8008-58.32 16.801-76.801 35.762-18.238 18.961-27.84 44.641-26.398 70.559 2.3984 39.121 49.922 42 96 44.641 30.719 1.9219 72 2.6406 122.88 2.6406h15.602c96-0.23828 192.96-3.6016 198.48-3.8398 325.92-0.24219 590.4-255.6 590.4-569.52zm-942.48 500.64c10.32-8.8789 29.281-13.922 53.762-14.398 13.441-0.23828 26.879-0.71875 39.84-1.1992l12.961-0.48047h0.48047 1.1992c14.16-0.48047 29.52-0.96094 44.879-0.71875 4.3203 0 14.641 0.23828 25.199-5.7617 11.762-6.4805 19.441-17.52 21.121-30.48 2.8789-22.801-14.16-40.559-19.441-45.359-24-22.078-39.121-54.719-41.762-89.281-2.6406-33.121 6.2383-69.121 24.48-101.76 11.762-20.641 24.961-35.281 39.121-43.199 8.8789-5.0391 20.641-8.6406 36.48-11.281 24.48-4.3203 43.199-3.6016 57.121 2.1602 18.238 7.4414 39.121-0.71875 46.801-18.48 7.6797-17.762-0.96094-37.68-18.961-45.121-27.121-11.039-59.039-13.199-97.68-6.4805-24.238 4.3203-42.961 10.32-59.281 19.199-25.922 14.398-48.48 37.922-66.48 70.078-25.199 44.641-36.48 92.879-32.879 139.68 1.6797 21.84 6.9609 43.199 15.121 63.121-74.641-89.52-60.48-194.16-41.281-336.72 0.96094-6.9609 1.9219-14.16 2.8789-21.359 44.641-19.441 84.238-40.801 104.64-52.559 17.039-9.6016 22.559-30.961 12.719-47.281-10.078-16.32-31.922-21.84-48.961-12.238-124.32 70.801-209.28 88.559-225.12 82.32-6.9609-3.8398-11.52-8.1602-11.52-11.52-0.23828-1.9219 1.1992-4.3203 2.1602-5.2812 37.441-11.281 104.88-37.199 150.48-87.359 19.68-21.602 19.199-54-0.96094-75.359-7.1992-7.6797-17.281-17.039-30.961-21.359-4.8008-1.4414-8.1602-1.6797-13.922-1.9219-92.641-4.3203-130.32-19.199-142.08-25.441-18.719-9.8398-24-16.078-25.441-23.039 2.6406-3.8398 6.9609-9.3594 12.961-16.32 2.8789-3.3594 5.5195-6.7188 8.1602-9.8398 7.4414-9.3594 12.48-19.68 17.52-30.48 13.68-28.559 34.559-71.762 107.52-107.04 27.121-12.961 49.441-22.32 68.398-28.559 16.32-5.2812 30-17.039 37.441-32.16 6.2383-12.719 13.922-26.879 21.602-40.801-0.23828 2.1602-0.48047 5.0391-1.1992 8.6406-3.8398 21.121 4.0781 43.199 20.879 57.602 6.4805 5.5195 21.359 19.199 48.961 48.961 1.9219 2.1602 5.5195 6.2383 11.281 14.641 14.641 20.641 27.121 44.398 37.199 70.078 25.922 66.961 90.238 195.6 228.72 305.76 88.559 70.32 150 140.88 161.52 255.36 5.2812 52.32-18 112.08-63.602 164.16-49.922 56.879-118.08 93.602-182.4 98.16-132.96 5.5195-286.32 6.2383-349.68 0.71875zm587.76-54.719c57.359-66 86.16-143.76 79.199-214.08-14.641-146.16-98.641-231.6-187.2-301.92-125.76-99.84-183.84-216.24-207.12-276.72-12-30.961-27.121-59.52-45.121-84.961-6.4805-9.1211-12-16.32-17.039-21.602-7.6797-8.1602-14.641-15.84-21.359-22.559 52.078-16.559 106.56-24.961 162.48-24.961 286.32 0 519.36 224.64 519.36 500.64 0 194.4-115.2 363.12-283.2 446.16z"/>
  <path d="m194.88 258.24c-21.121 0-38.16 24.48-38.16 32.16 0 17.762 17.039 32.16 38.16 32.16s38.16-14.398 38.16-32.16c0-17.758-17.039-32.16-38.16-32.16z"/>
 </g>
</svg>
